<svg xmlns="http://www.w3.org/2000/svg" viewBox="0 0 191.85 81.33"><defs><style>.cls-1{fill:#fff;}</style></defs><title>r-pilates-studio-inverse</title><g id="Vrstva_2" data-name="Vrstva 2"><g id="Vrstva_1-2" data-name="Vrstva 1"><path class="cls-1" d="M0,81.18V63.43H7.35a4.6,4.6,0,0,1,2.11.49,5.57,5.57,0,0,1,1.66,1.28A6,6,0,0,1,12.23,67a5.41,5.41,0,0,1,.4,2,6,6,0,0,1-.37,2.11,5.7,5.7,0,0,1-1,1.79,5.26,5.26,0,0,1-1.61,1.25,4.55,4.55,0,0,1-2.09.48H1.75v6.55Zm1.75-8.1H7.43a3,3,0,0,0,1.41-.34,3.45,3.45,0,0,0,1.09-.9,4.22,4.22,0,0,0,.7-1.3A4.74,4.74,0,0,0,10.88,69a4.32,4.32,0,0,0-1.06-2.85,3.55,3.55,0,0,0-1.15-.86A3.22,3.22,0,0,0,7.28,65H1.75Z"/><path class="cls-1" d="M15.55,81.18V63.43H17.3V81.18Z"/><path class="cls-1" d="M21.75,81.18V63.43H23.5v16.2H33.75v1.55Z"/><path class="cls-1" d="M41.82,63.43H43.3l7.38,17.75H48.82l-2.3-5.55h-8l-2.28,5.55H34.4Zm4.3,10.83-3.58-8.78-3.62,8.78Z"/><path class="cls-1" d="M64.08,65H57.75v16.2H56V65H49.67V63.43h14.4Z"/><path class="cls-1" d="M78.65,79.63v1.55H66.72V63.43h11.7V65h-10v6.4h8.68v1.47H68.47v6.78Z"/><path class="cls-1" d="M91.95,66.76a5.4,5.4,0,0,0-2-1.37,7.29,7.29,0,0,0-2.85-.53,5.35,5.35,0,0,0-3.42.89,3,3,0,0,0-1.08,2.41,2.66,2.66,0,0,0,.29,1.31,2.51,2.51,0,0,0,.89.89,6.24,6.24,0,0,0,1.54.65q.94.28,2.21.55a24.11,24.11,0,0,1,2.56.67,7.35,7.35,0,0,1,1.94.94,3.9,3.9,0,0,1,1.23,1.36,4.23,4.23,0,0,1,.42,2,4.49,4.49,0,0,1-.48,2.13,4.22,4.22,0,0,1-1.32,1.5,5.91,5.91,0,0,1-2,.89,10.84,10.84,0,0,1-2.58.29,10.58,10.58,0,0,1-7.12-2.58L81,77.33a6.94,6.94,0,0,0,1.14.95,8.24,8.24,0,0,0,1.47.79,9.4,9.4,0,0,0,1.74.52,9.79,9.79,0,0,0,1.95.19A6.11,6.11,0,0,0,90.64,79a2.56,2.56,0,0,0,1.19-2.31,2.66,2.66,0,0,0-.34-1.39,2.93,2.93,0,0,0-1-1,7.22,7.22,0,0,0-1.67-.71q-1-.3-2.33-.6T84,72.36a6.5,6.5,0,0,1-1.77-.87,3.39,3.39,0,0,1-1.09-1.26,4.08,4.08,0,0,1-.36-1.81,5,5,0,0,1,.46-2.19,4.31,4.31,0,0,1,1.31-1.6,6.21,6.21,0,0,1,2-1,9,9,0,0,1,2.55-.34,8.73,8.73,0,0,1,3.16.54,8.53,8.53,0,0,1,2.51,1.51Z"/><path class="cls-1" d="M113.5,66.76a5.4,5.4,0,0,0-2-1.37,7.29,7.29,0,0,0-2.85-.53,5.35,5.35,0,0,0-3.42.89,3,3,0,0,0-1.08,2.41,2.66,2.66,0,0,0,.29,1.31,2.51,2.51,0,0,0,.89.89,6.24,6.24,0,0,0,1.54.65q.94.28,2.21.55a24.11,24.11,0,0,1,2.56.67,7.35,7.35,0,0,1,1.94.94,3.9,3.9,0,0,1,1.23,1.36,4.23,4.23,0,0,1,.42,2,4.49,4.49,0,0,1-.48,2.13,4.22,4.22,0,0,1-1.32,1.5,5.91,5.91,0,0,1-2,.89,10.84,10.84,0,0,1-2.58.29,10.58,10.58,0,0,1-7.12-2.58l.88-1.42a6.94,6.94,0,0,0,1.14.95,8.24,8.24,0,0,0,1.47.79,9.4,9.4,0,0,0,1.74.52,9.79,9.79,0,0,0,1.95.19,6.11,6.11,0,0,0,3.31-.76,2.56,2.56,0,0,0,1.19-2.31,2.66,2.66,0,0,0-.34-1.39,2.93,2.93,0,0,0-1-1,7.22,7.22,0,0,0-1.67-.71q-1-.3-2.33-.6t-2.45-.67a6.5,6.5,0,0,1-1.77-.87,3.39,3.39,0,0,1-1.09-1.26,4.08,4.08,0,0,1-.36-1.81,5,5,0,0,1,.46-2.19,4.31,4.31,0,0,1,1.31-1.6,6.21,6.21,0,0,1,2-1,9,9,0,0,1,2.55-.34,8.73,8.73,0,0,1,3.16.54,8.53,8.53,0,0,1,2.51,1.51Z"/><path class="cls-1" d="M130.77,65h-6.33v16.2H122.7V65h-6.33V63.43h14.4Z"/><path class="cls-1" d="M140.62,79.73a5.54,5.54,0,0,0,2.79-.64,5,5,0,0,0,1.77-1.67,6.79,6.79,0,0,0,.92-2.36,13.67,13.67,0,0,0,.26-2.67v-9h1.75v9a14.18,14.18,0,0,1-.4,3.41,8.12,8.12,0,0,1-1.29,2.84,6.37,6.37,0,0,1-2.31,2,7.6,7.6,0,0,1-3.47.72,7.47,7.47,0,0,1-3.54-.76,6.46,6.46,0,0,1-2.31-2,8.17,8.17,0,0,1-1.25-2.85,14.41,14.41,0,0,1-.37-3.3v-9h1.73v9a13.35,13.35,0,0,0,.27,2.72,6.86,6.86,0,0,0,.94,2.35,5,5,0,0,0,1.76,1.65A5.5,5.5,0,0,0,140.62,79.73Z"/><path class="cls-1" d="M152.3,81.18V63.43h6a9.14,9.14,0,0,1,3.71.7,7.55,7.55,0,0,1,2.65,1.9,8,8,0,0,1,1.6,2.81,10.83,10.83,0,0,1,.54,3.44,10.6,10.6,0,0,1-.6,3.66,8,8,0,0,1-1.71,2.8,7.65,7.65,0,0,1-2.67,1.8,9.23,9.23,0,0,1-3.51.64Zm12.78-8.9a9.17,9.17,0,0,0-.45-2.94A6.65,6.65,0,0,0,163.31,67a5.89,5.89,0,0,0-2.11-1.51,7.22,7.22,0,0,0-2.87-.54H154V79.63h4.28a7.09,7.09,0,0,0,2.91-.56,5.93,5.93,0,0,0,2.11-1.55,6.73,6.73,0,0,0,1.29-2.33A9.34,9.34,0,0,0,165.07,72.28Z"/><path class="cls-1" d="M170.17,81.18V63.43h1.75V81.18Z"/><path class="cls-1" d="M183.52,81.31a7.51,7.51,0,0,1-3.39-.76,8.42,8.42,0,0,1-2.64-2,9.2,9.2,0,0,1-1.7-2.89,9.52,9.52,0,0,1-.6-3.33,9.23,9.23,0,0,1,.64-3.4A9.38,9.38,0,0,1,177.6,66a8.53,8.53,0,0,1,2.65-2,7.49,7.49,0,0,1,3.3-.74,7.33,7.33,0,0,1,3.39.79,8.51,8.51,0,0,1,2.63,2.06A9.52,9.52,0,0,1,191.25,69a9.35,9.35,0,0,1,.6,3.29,9.23,9.23,0,0,1-.64,3.4,9.33,9.33,0,0,1-1.75,2.86,8.46,8.46,0,0,1-2.64,2A7.48,7.48,0,0,1,183.52,81.31Zm-6.58-9a8.24,8.24,0,0,0,.48,2.79,7.55,7.55,0,0,0,1.35,2.38,6.62,6.62,0,0,0,2.08,1.65,5.8,5.8,0,0,0,2.67.61,5.72,5.72,0,0,0,2.72-.65,6.65,6.65,0,0,0,2.08-1.7A7.86,7.86,0,0,0,189.63,75a8.16,8.16,0,0,0,0-5.49,7.62,7.62,0,0,0-1.36-2.36,6.72,6.72,0,0,0-2.07-1.64,5.75,5.75,0,0,0-2.65-.61,5.81,5.81,0,0,0-2.72.64,6.48,6.48,0,0,0-2.08,1.69,7.83,7.83,0,0,0-1.31,2.38A8.14,8.14,0,0,0,176.95,72.31Z"/><path class="cls-1" d="M97.14,37.66a8.65,8.65,0,0,0-.42-1.46,3.53,3.53,0,0,0,.59-2.07,4.59,4.59,0,0,0-.41-1.89l0-.07a12.3,12.3,0,0,0-1.63-2.43,19.42,19.42,0,0,1-2.76-4.32c.91-2.13,1.82-4.59,1.82-6A9.34,9.34,0,0,0,93,15.34,21.05,21.05,0,0,1,91.09,10,5.3,5.3,0,0,1,92,8.77a3.17,3.17,0,0,0,1-2.22,5,5,0,0,0-1.18-3,4.86,4.86,0,0,1-1.15-3,.5.5,0,0,0-1,0V33l-6.2,3.51h0L70.29,44h0a2.06,2.06,0,0,0-.63,3h0a15.63,15.63,0,0,0,5.07,3.71l.14,0A.5.5,0,0,0,75.2,50s-2.14-2.33-2.39-4.34a40.58,40.58,0,0,0,9.75,2h.21a3.77,3.77,0,0,0,3.8,3.2,4,4,0,0,0,2.1-.6,9,9,0,0,0,2.94.6,2.4,2.4,0,0,0,.29,0,1.73,1.73,0,0,0,.34,0,1.7,1.7,0,0,0,.59-.1,6.5,6.5,0,0,0,2.82-2.32,11.81,11.81,0,0,0,1.86-7,2.67,2.67,0,0,0,0-.37A19.24,19.24,0,0,0,97.14,37.66ZM92.79,49.15a1.15,1.15,0,0,1-.8.59.74.74,0,0,1-.35-.26,4.77,4.77,0,0,1-.81-1.81,8.07,8.07,0,0,1,1.85,1.1A.31.31,0,0,1,92.79,49.15Zm-8.67-2.47a1.54,1.54,0,0,0,.08-1.06,31.07,31.07,0,0,1,5.55,1.59,5.52,5.52,0,0,0,.83,2.47A19.69,19.69,0,0,1,84.12,46.68Zm-1.37-1.21a.56.56,0,0,1,.47.33.62.62,0,0,1,0,.3l-.92-.66Zm2.52-.63a3,3,0,0,1,1.33-.32,2.9,2.9,0,0,1,2.51,1.39A33.19,33.19,0,0,0,85.26,44.84Zm1.33-1.32a4,4,0,0,0-2.69,1.06,13.13,13.13,0,0,0-3-.2l-1.7,0c-1.64,0-3.57-.06-5.6-.24,1.74-.43,3.11-.69,4.29-.91a19.44,19.44,0,0,0,7.58-2.65,18.39,18.39,0,0,0,7-1.58c0,.56.09,1.11.14,1.66a11.32,11.32,0,0,0-2.72,4.71A3.9,3.9,0,0,0,86.58,43.52Zm8.55-6h0a3.86,3.86,0,0,0,.8-.51c.06.18.11.35.14.49a23.41,23.41,0,0,0-2.54,2.14c0-.39-.06-.77-.09-1.15A15.46,15.46,0,0,0,95.13,37.56Zm.43-1.5a2.88,2.88,0,0,1-2.07.88h-.14l0-.39c-.08-1.33-.16-2.6-.26-3.66a7,7,0,0,1,2.5,3.18Zm-3.5-3.23c.11,1.07.19,2.38.28,3.76v.09a2.81,2.81,0,0,1-1.66-2.55v-.52Zm.35,4.93v.13a18.34,18.34,0,0,1-5.86,1.58,2.3,2.3,0,0,0,.2-.55,2.17,2.17,0,0,0-.35-1.72,2.23,2.23,0,0,0-.83-.71l4.1-2.32A3.8,3.8,0,0,0,92.41,37.76ZM84,37.41a1.23,1.23,0,0,1,1.62.37,1.17,1.17,0,0,1,.19.94,1.41,1.41,0,0,1-.55.82,13.46,13.46,0,0,1-4-.58Zm12.32,1.22a20.6,20.6,0,0,1,.21,2.75,1.34,1.34,0,0,1-1.29,1.08,1.39,1.39,0,0,1-1.54-1.31V41A22.76,22.76,0,0,1,96.29,38.63ZM93.57,32a2.37,2.37,0,0,1,2.44.7,3.65,3.65,0,0,1,.29,1.43,2.54,2.54,0,0,1-.12.85A7.53,7.53,0,0,0,93.57,32Zm-.28-12.57a15.75,15.75,0,0,1-1.35,4.66,26.36,26.36,0,0,1-1.26-8.76V12.43a26.88,26.88,0,0,0,1.42,3.35A8.51,8.51,0,0,1,93.29,19.44Zm-2.61,4a18.17,18.17,0,0,0,.7,2c-.24.55-.48,1.08-.7,1.55Zm0-19.86.33.48a4.12,4.12,0,0,1,1,2.47,2.25,2.25,0,0,1-.79,1.56l-.37.44a22.52,22.52,0,0,1-.17-2.78Zm0,25.68c.16-.32.67-1.34,1.26-2.64a21.93,21.93,0,0,0,2.51,3.73l.49.62a2.85,2.85,0,0,0-2.17.3l-2.08,1.18ZM80.09,39.6a14.31,14.31,0,0,0,3.51.85,19.26,19.26,0,0,1-5.86,1.77c-1,.19-2.16.4-3.57.73Zm-8.3,5.86A7.19,7.19,0,0,0,73,48.66a12.29,12.29,0,0,1-2.56-2.21,1.06,1.06,0,0,1,.31-1.56l.22-.06c.15.08.41.2.75.35A.69.69,0,0,1,71.79,45.47Zm7.44-.12,1.36,0c.23.19.79.63,1.56,1.18a43.42,43.42,0,0,1-7.28-1.34C76.44,45.31,77.92,45.33,79.23,45.35Zm7.36,4.45a2.8,2.8,0,0,1-2.79-2.12,28.44,28.44,0,0,0,3.62,2A3.05,3.05,0,0,1,86.58,49.8Zm8.26-2a7,7,0,0,1-1.05,1.13,1.32,1.32,0,0,0-.45-.88,10.22,10.22,0,0,0-2.59-1.47,4.86,4.86,0,0,1,.05-.67,9.11,9.11,0,0,1,2-4,2.38,2.38,0,0,0,2.27,1.53h.17a2.54,2.54,0,0,0,1.15-.37A9.41,9.41,0,0,1,94.85,47.77Z"/><path class="cls-1" d="M119,50.08c-3.2,0-5.81-4.92-5.81-11V37a12,12,0,0,0-8.56-11.46,12,12,0,0,0-3.4-23.42H96.43a.5.5,0,0,0,0,1h4.79c3.2,0,5.81,4.92,5.81,11s-2.6,11-5.81,11H96.43a.5.5,0,0,0,0,1h4.79c3.2,0,5.81,4.92,5.81,11v2.09a12,12,0,0,0,12,12,.5.5,0,0,0,0-1Z"/></g></g></svg>